<svg xmlns="http://www.w3.org/2000/svg" id="uuid-6069ca37-67e7-4ad9-be47-84e4e4d8ca5c" data-name="Layer 2" viewBox="0 0 3590.57 1200.88"><g id="uuid-6b8a959b-b86d-4bab-86f4-fa0c64f8a5da" data-name="Layer 1"><g><path d="M795.99,468.63c-60.51,186.21-214,279.32-460.46,279.32-285.47,0-378.44-93.11-317.93-279.32L130.55,121.1h182.63l-112.94,347.53c-29.66,91.26-2.01,120.76,186.83,120.76,140.96,0,196.37-34.11,224.53-120.76l112.94-347.53h184.4l-112.94,347.53Z" style="fill: #552e8c;"></path><path d="M1280.71,714.77l-253.24-339.24-117.73,362.29h-166.67l166.27-511.62c26.66-82.05,85.32-115.24,137.63-115.24,22.17,0,42.54,5.53,62.8,33.19l253.24,339.24,117.73-362.29h167.56l-165.97,510.7c-26.66,82.04-85.62,116.16-138.81,116.16-23.05,0-43.42-5.53-62.8-33.19Z" style="fill: #552e8c;"></path><path d="M2295.44,579.26l-158.56,158.56h-300.18c-202.82,0-308.89-135.52-251.58-314.35,57.9-180.68,246.39-302.36,449.22-302.36h409.99l-160.42,160.41h-300.98c-97.91,0-191.14,61.76-219.5,150.25-28.06,87.58,25.29,147.5,124.08,147.5h407.93Z" style="fill: #552e8c;"></path><path d="M2427.43,737.81h-183.52l200.42-616.71h183.52l-200.42,616.71Z" style="fill: #552e8c;"></path><path d="M2726.18,737.81l160.19-158.56h151.1c35.46,0,77.13,0,104.9,1.84-8.77-22.12-21.31-59.91-31.23-89.41l-53.37-163.17-411.39,409.3h-217.21l561.58-557.71c36.5-35.95,83.64-69.14,141.27-69.14s81.43,30.42,94.55,69.14l189.33,557.71h-689.73Z" style="fill: #552e8c;"></path></g><g><path d="M95.38,1013.74h67.98c16.55,0,29.78,3.11,39.68,9.34,9.91,6.22,16.14,15.11,18.7,26.67,2.55,11.56,1.22,25.15-3.98,40.74-7.14,21.38-17.68,40.18-31.6,56.38-13.93,16.2-29.98,28.74-48.17,37.59-18.19,8.85-37.26,13.28-57.21,13.28H1.43l93.95-184ZM93.61,1162.77c12.68,0,24.71-3.02,36.09-9.07,11.38-6.04,21.31-14.36,29.8-24.97,8.49-10.6,14.96-22.56,19.42-35.88,4.62-13.83,4.29-24.66-.99-32.46-5.29-7.79-15.43-11.69-30.43-11.69h-32.25l-58.29,114.07h36.66Z" style="fill: #2e1a51;"></path><path d="M325.25,1158.38h-75.63l-34.28,39.43h-40.14l166.57-184h37.12l-21.57,184h-37.58l5.51-39.43ZM329.79,1126.05l10.03-70.97-61.99,70.97h51.97Z" style="fill: #2e1a51;"></path><path d="M557.59,1114.94c-12.3,12.27-26.57,20.95-42.8,26.03l9.33,56.77h-39.67l-8.31-51.52h-32.02l-26.26,51.52h-37.81l93.95-184h66.12c20.11,0,34.06,5,41.86,14.98,7.79,10,8.68,24.02,2.65,42.05-5.74,17.19-14.76,31.9-27.05,44.16ZM525.64,1102.59c9.05-6.49,15.59-15.78,19.63-27.87,2.93-8.75,2.49-15.33-1.3-19.71-3.8-4.37-10.56-6.57-20.31-6.57h-29.7l-32.7,63.86h32.02c12.53,0,23.32-3.23,32.36-9.71Z" style="fill: #2e1a51;"></path><path d="M670.23,1047.92l-20.31,39.95h75.4l-16.86,33.13h-75.63l-21.66,42.57h88.63l-17.68,34.18h-125.75l93.95-184h122.73l-17.68,34.18h-85.15Z" style="fill: #2e1a51;"></path><path d="M899.04,1048.44h-51.97l17.86-34.7h141.52l-17.86,34.7h-51.74l-76.33,149.29h-37.59l76.1-149.29Z" style="fill: #2e1a51;"></path><path d="M980.43,1190.9c-9.69-6.65-15.68-16.03-17.98-28.12-2.31-12.08-.82-26.02,4.45-41.78,6.97-20.86,17.46-39.65,31.48-56.39,14.02-16.73,30.26-29.92,48.71-39.55,18.46-9.64,37.51-14.46,57.15-14.46,16.24,0,29.2,3.32,38.89,9.99,9.68,6.66,15.67,16.03,17.97,28.12,2.3,12.1.82,26.02-4.45,41.79-6.97,20.86-17.47,39.65-31.48,56.38-14.03,16.74-30.26,29.93-48.71,39.55-18.46,9.64-37.51,14.46-57.15,14.46-16.24,0-29.21-3.32-38.89-9.99ZM1069.26,1154.88c11.13-6.48,20.92-15.15,29.34-26.02,8.42-10.86,14.83-22.87,19.23-36.01,4.68-14.01,4.55-25.18-.4-33.51-4.95-8.33-14.47-12.49-28.54-12.49-11.91,0-23.43,3.25-34.57,9.74-11.14,6.48-20.92,15.15-29.34,26.02-8.43,10.87-14.83,22.87-19.23,36.01-4.68,14.02-4.55,25.18.4,33.51,4.95,8.33,14.46,12.49,28.54,12.49,11.91,0,23.43-3.25,34.57-9.74Z" style="fill: #2e1a51;"></path><path d="M1367.6,1102.85h34.33l-38.75,75.69c-10.6,7.19-21.96,12.72-34.07,16.56-12.12,3.86-23.97,5.78-35.57,5.78-16.24,0-29.28-3.32-39.12-9.99-9.84-6.65-16.03-16.03-18.56-28.12-2.54-12.08-1.17-26.02,4.1-41.78,6.97-20.86,17.52-39.69,31.65-56.52,14.12-16.82,30.52-30,49.18-39.55,18.66-9.55,38.04-14.32,58.15-14.32,15.46,0,27.97,2.71,37.53,8.15,9.55,5.43,16.05,13.4,19.5,23.92l-35.17,24.7c-3.01-7.18-7.38-12.4-13.1-15.65-5.72-3.23-13.22-4.86-22.51-4.86-12.38,0-24.32,3.12-35.83,9.34-11.51,6.22-21.67,14.76-30.48,25.62-8.82,10.87-15.47,23.04-19.98,36.54-4.74,14.19-4.44,25.45.9,33.77,5.34,8.33,15.58,12.49,30.74,12.49,9.59,0,19.29-2.2,29.11-6.58l27.95-55.19Z" style="fill: #2e1a51;"></path><path d="M1438.17,1190.9c-9.69-6.65-15.68-16.03-17.98-28.12-2.31-12.08-.82-26.02,4.45-41.78,6.97-20.86,17.46-39.65,31.48-56.39,14.02-16.73,30.26-29.92,48.71-39.55,18.46-9.64,37.51-14.46,57.15-14.46,16.24,0,29.2,3.32,38.89,9.99,9.68,6.66,15.67,16.03,17.97,28.12,2.3,12.1.82,26.02-4.45,41.79-6.97,20.86-17.47,39.65-31.48,56.38-14.03,16.74-30.26,29.93-48.71,39.55-18.46,9.64-37.51,14.46-57.15,14.46-16.24,0-29.21-3.32-38.89-9.99ZM1526.99,1154.88c11.13-6.48,20.92-15.15,29.34-26.02,8.42-10.86,14.83-22.87,19.23-36.01,4.68-14.01,4.55-25.18-.4-33.51-4.95-8.33-14.47-12.49-28.54-12.49-11.91,0-23.43,3.25-34.57,9.74-11.14,6.48-20.92,15.15-29.34,26.02-8.43,10.87-14.83,22.87-19.23,36.01-4.68,14.02-4.55,25.18.4,33.51,4.95,8.33,14.46,12.49,28.54,12.49,11.91,0,23.43-3.25,34.57-9.74Z" style="fill: #2e1a51;"></path><path d="M1846.51,1116.9c1.71,6.23,1.07,13.8-1.92,22.74-6.38,19.11-17.86,33.57-34.44,43.38-16.59,9.81-35.93,14.72-58.05,14.72h-85.14l93.95-184h78.42c17.48,0,29.71,3.65,36.72,10.92,7,7.28,8.25,17.66,3.75,31.14-3.75,11.22-9.55,20.81-17.38,28.78-7.85,7.99-16.96,14.07-27.34,18.28,5.91,3.15,9.71,7.83,11.43,14.05ZM1792.01,1158.83c7.4-4.56,12.53-11.12,15.4-19.71,4.21-12.61-1.8-18.92-18.04-18.92h-45.47l-23.08,45.47h44.31c10.52,0,19.47-2.28,26.88-6.84ZM1781.75,1045.81l-22.14,43.37h38.28c9.89,0,18.34-2.23,25.32-6.7,6.98-4.47,11.88-10.9,14.69-19.32,3.86-11.56-2.18-17.35-18.1-17.35h-38.05Z" style="fill: #2e1a51;"></path><path d="M1964.1,1047.92l-20.31,39.95h75.4l-16.86,33.13h-75.63l-21.66,42.57h88.63l-17.68,34.18h-125.75l93.95-184h122.73l-17.68,34.18h-85.15Z" style="fill: #2e1a51;"></path><path d="M2120.53,1133.86l-32.48,63.87h-37.58l33.32-65.71-2.24-118.29h37.58l1.6,82.01,85.63-82.01h38.74l-124.58,120.12Z" style="fill: #2e1a51;"></path><path d="M2210.04,1190.9c-9.68-6.65-15.68-16.03-17.98-28.12-2.31-12.08-.82-26.02,4.45-41.78,6.97-20.86,17.46-39.65,31.48-56.39,14.02-16.73,30.26-29.92,48.72-39.55,18.46-9.64,37.5-14.46,57.15-14.46,16.24,0,29.2,3.32,38.89,9.99,9.68,6.66,15.67,16.03,17.97,28.12,2.3,12.1.82,26.02-4.45,41.79-6.97,20.86-17.46,39.65-31.48,56.38-14.03,16.74-30.27,29.93-48.71,39.55-18.46,9.64-37.51,14.46-57.15,14.46-16.24,0-29.21-3.32-38.89-9.99ZM2298.87,1154.88c11.13-6.48,20.92-15.15,29.34-26.02,8.43-10.86,14.83-22.87,19.23-36.01,4.68-14.01,4.55-25.18-.4-33.51-4.95-8.33-14.47-12.49-28.55-12.49-11.91,0-23.43,3.25-34.57,9.74-11.14,6.48-20.92,15.15-29.34,26.02-8.43,10.87-14.83,22.87-19.22,36.01-4.68,14.02-4.55,25.18.4,33.51,4.95,8.33,14.46,12.49,28.54,12.49,11.91,0,23.43-3.25,34.57-9.74Z" style="fill: #2e1a51;"></path><path d="M2610.28,1013.74l-93.95,184h-30.86l-22.09-115.13-58.88,115.13h-37.12l93.95-184h31.09l22,115.39,58.74-115.39h37.12Z" style="fill: #2e1a51;"></path><path d="M2654.59,1013.74h67.98c16.55,0,29.78,3.11,39.68,9.34,9.9,6.22,16.14,15.11,18.7,26.67,2.55,11.56,1.22,25.15-3.99,40.74-7.14,21.38-17.67,40.18-31.6,56.38-13.93,16.2-29.98,28.74-48.17,37.59-18.19,8.85-37.26,13.28-57.21,13.28h-79.34l93.95-184ZM2652.82,1162.77c12.68,0,24.71-3.02,36.09-9.07,11.38-6.04,21.31-14.36,29.81-24.97,8.49-10.6,14.96-22.56,19.41-35.88,4.62-13.83,4.29-24.66-.99-32.46-5.29-7.79-15.43-11.69-30.43-11.69h-32.25l-58.3,114.07h36.66Z" style="fill: #2e1a51;"></path></g><polygon points="3415.97 829.78 3199.79 829.78 3068.58 829.78 0 829.78 0 921.75 3013.76 921.78 2829.77 1105.77 3415.97 829.78" style="fill: #552e8c;"></polygon><g><path d="M3386.86,18.28h-38.55V0h98.7v18.28h-38.55v98.04h-21.6V18.28Z" style="fill: #532e8c;"></path><path d="M3570.13,116.31l-.17-77.1-38.22,63.81h-9.64l-38.22-62.81v76.1h-20.6V0h17.78l46.19,77.1L3572.62,0h17.78l.17,116.31h-20.44Z" style="fill: #532e8c;"></path></g></g></svg>